<?xml version="1.0" encoding="utf-8"?>
<!-- Generator: Adobe Illustrator 21.1.0, SVG Export Plug-In . SVG Version: 6.00 Build 0)  -->
<svg version="1.1" id="Lag_1" xmlns="http://www.w3.org/2000/svg" xmlns:xlink="http://www.w3.org/1999/xlink" x="0px" y="0px"
	 viewBox="0 0 513.8 513.9" style="enable-background:new 0 0 513.8 513.9;" xml:space="preserve">
<style type="text/css">
	.st0{fill:#262120;}
</style>
<g>
	<path class="st0" d="M277.5,7c48.2,3.4,111.8,26.1,160.7,77.4s71.5,113.5,68.5,184.3c-2.4,56.9-22.1,107.8-59.6,150.8
		c-53.3,61.2-121.2,90.2-202,87.1c-56.9-2.1-107.7-22.1-150.8-59.6C33,393.5,4.4,325.4,7.2,244.4c1.3-37.4,11.3-73,29.1-105.9
		c21-38.9,50.4-70.5,88-93.9c7.1-4.4,20.1-11.9,37.5-19c14-5.7,46.5-17.5,89.9-19C254.1,6.5,265.5,6.1,277.5,7z M336.6,256.4
		c2.4-20.6,4.8-41,7.2-62c-20.4,0-39.8,0-59.7,0c0-14.9-0.3-29.4,0.2-43.8c0.1-3.3,2.3-6.8,4.4-9.6c4.5-6,11.1-6.1,18-6
		c12.1,0.2,24.2,0.1,36.5,0.1c0-21.6,0-42.7,0-64.1c-12.6,0-24.9-0.1-37.2,0c-17.1,0.3-34.4-1.7-51.2,3.6
		c-11.5,3.6-22.2,8.9-30.1,17.9C213.1,106,208,122.2,208,140c0,16.7,0,33.3,0,50c0,1.4-0.2,2.9-0.3,4.8c-12.6,0-24.8,0-37,0
		c0,20.7,0,40.8,0,61.4c12.5,0,24.7,0,37.5,0c0,62.4,0,124.3,0,186.2c25.6,0,50.7,0,76.1,0c0-62.1,0-123.9,0-186
		C301.5,256.4,318.5,256.4,336.6,256.4z"/>
</g>
</svg>
