<?xml version="1.0" encoding="utf-8"?>
<!-- Generator: Adobe Illustrator 21.1.0, SVG Export Plug-In . SVG Version: 6.00 Build 0)  -->
<svg version="1.1" id="Lag_1" xmlns="http://www.w3.org/2000/svg" xmlns:xlink="http://www.w3.org/1999/xlink" x="0px" y="0px"
	 viewBox="0 0 500 500" style="enable-background:new 0 0 500 500;" xml:space="preserve">
<style type="text/css">
	.st0{fill:#FDFDFD;}
	.st1{fill:#262120;}
	.st2{fill:#EFE8D9;}
	.st3{fill:#F7F0DE;}
	.st4{fill:#3E3936;}
</style>
<g>
	<path class="st0" d="M500,500c-166.7,0-333.3,0-500,0C0,333.3,0,166.7,0,0c166.7,0,333.3,0,500,0C500,166.7,500,333.3,500,500z
		 M496.3,250.2c-0.6-67.7-24.1-126.3-72-174.3C372.5,24.1,309,0.5,236.1,4.1C108.1,10.4,4.5,117.2,3.7,248.5
		c-0.9,137,110.9,247.2,244.9,247.9C384.6,497.1,496.9,386.3,496.3,250.2z"/>
	<path class="st1" d="M496.3,250.2c0.5,136-111.7,246.8-247.7,246.2C114.6,495.7,2.8,385.6,3.7,248.5
		C4.5,117.2,108.1,10.4,236.1,4.1C309,0.5,372.5,24.1,424.3,76C472.2,123.9,495.7,182.5,496.3,250.2z M244.3,180
		c-0.1,1.7-0.2,3.3-0.2,5c0,33.7,0,67.3,0,101c0,13.3,0.1,26.6,0.2,40c0.1,3.9,2.3,6,6,5.6c3.5-0.4,4.9-3.1,4.8-6.5
		c0-0.8,0-1.7,0-2.5c0-46.3,0-92.6,0-138.9c0-1.3,0.1-2.7-0.1-4c-0.6-4.4-3.9-6-8.2-4.1c-0.7,0.8-1.3,1.6-2,2.4
		C244.7,178.6,244.5,179.3,244.3,180z M401.1,144.9c-1.6-0.9-3.2-2.3-4.9-2.7c-8.4-2-17-3-25.2-5.6c-19.9-6.2-39.3-14.3-60.5-16.1
		c-18-1.5-34.5,1.6-48.6,13.4c-4.6,3.8-8.4,8.6-12.4,12.7c-3.5-3.8-6.7-8-10.5-11.3c-17-15-37.3-17.8-58.5-13.6
		c-14.3,2.8-28.2,7.7-42.2,11.6c-11.2,3-22.3,6.3-33.6,8.6c-6,1.2-7.6,1.9-7.6,8c0,64.5,0,129,0,193.5c0,6.1,2.1,8.2,8.3,7.4
		c6.6-0.9,13.2-1.8,19.5-3.7c15.4-4.5,30.7-9.8,46.1-14.4c11.2-3.3,22.9-4.6,34.5-3.1c10.8,1.4,20.4,5.8,28.1,13.8
		c2.3,2.4,4.8,4.3,8.3,2.2c3.9-2.3,4-6.1,0.3-10c-15.9-16.5-35.9-19.8-57.5-17.3c-18.3,2-35.4,8.8-52.7,14.6
		c-7.5,2.5-15.2,4.4-23.2,6.7c-0.1-2.3-0.2-3.6-0.2-4.9c0-59,0-118,0-177c0-0.7-0.3-1.5,0-2c0.7-1.1,1.5-2.5,2.6-2.8
		c12.1-3.6,24.3-6.8,36.3-10.6c17.1-5.5,34.1-11.4,52.4-10.5c20.1,1,35,10.1,43.7,28.8c1.1,2.4,3.9,5.4,6,5.4c2.1,0,5-2.9,6.1-5.2
		c8.8-18.8,23.7-28.1,44.1-29c15.7-0.7,30.5,3.7,45.3,8.3c14.6,4.6,29.2,8.7,43.9,13c0,13.3,0.1,26.6,0.1,39.9
		c0,48.6-0.1,97.1-0.1,145.7c-11.1-3.3-22.3-6.3-33.3-10c-19.2-6.4-38.3-12.4-58.9-11c-15.4,1-28.7,6.6-39.5,17.8
		c-2.7,2.8-4.3,5.8-0.9,9.1c3.2,3.2,6.3,2,9.1-0.9c11.5-11.8,25.9-15.5,41.9-14.5c15.1,0.9,29.3,5.5,43.5,10.2
		c13.8,4.6,27.4,10.3,42.2,11.3c7.7,0.5,9.3-0.8,9.3-8.3c0-63.5,0-127,0-190.5c0-1.7-0.2-3.3-0.2-5
		C401.7,146.3,401.4,145.6,401.1,144.9z M196,337.8c-15.2-0.4-29.9,3.9-44.5,8.5c-16.3,5.1-32,12.4-49.4,13.7
		c-1.7,0.1-4.2,3.4-4.4,5.4c-0.4,3.2,2.3,5.3,5.6,4.7c9.8-1.8,19.7-3.3,29.2-6.1c20.2-6,39.6-14.7,61.2-15.4
		c15.1-0.5,28.7,2.7,39.7,13.6c4.2,4.1,25.6,5.5,30.4,2c0.3-0.2,0.5-0.4,0.7-0.7c14.8-15.7,33.6-17.4,53-13.7
		c14,2.7,27.5,7.8,41.3,11.4c12,3.2,24.1,6,36.2,8.7c3.5,0.8,6.5-0.9,6.7-4.8c0.2-4-2.6-5.1-6.1-5.7c-8-1.5-16-3-23.8-5.1
		c-18.6-5.1-36.8-11.6-55.6-15.5c-17.7-3.6-35.7-1.8-50.4,9.9c-6.8,5.4-13.5,7-21.4,6.2c-1.7-0.2-3.6-0.7-4.8-1.8
		C227.2,342.2,212.7,337.4,196,337.8z"/>
	<path class="st2" d="M389,153.2c-14.6-4.3-29.3-8.5-43.9-13c-14.8-4.6-29.6-9-45.3-8.3c-20.4,0.9-35.3,10.2-44.1,29
		c-1.1,2.3-4.1,5.3-6.1,5.2c-2.1,0-4.9-3-6-5.4c-8.7-18.7-23.6-27.8-43.7-28.8c-18.3-0.9-35.3,5-52.4,10.5c-12,3.8-24.2,7-36.3,10.6
		c-1.1,0.3-1.9,1.8-2.6,2.8c-0.3,0.5,0,1.3,0,2c0,59,0,118,0,177c0,1.3,0.1,2.6,0.2,4.9c8-2.3,15.7-4.2,23.2-6.7
		c17.3-5.8,34.4-12.6,52.7-14.6c21.6-2.4,41.6,0.8,57.5,17.3c3.7,3.9,3.6,7.7-0.3,10c-3.5,2.1-6,0.2-8.3-2.2
		c-7.7-8-17.3-12.5-28.1-13.8c-11.7-1.5-23.3-0.2-34.5,3.1c-15.4,4.6-30.7,9.9-46.1,14.4c-6.3,1.9-13,2.8-19.5,3.7
		c-6.2,0.8-8.3-1.3-8.3-7.4c0-64.5,0-129,0-193.5c0-6,1.7-6.7,7.6-8c11.3-2.4,22.4-5.6,33.6-8.6c14.1-3.8,28-8.7,42.2-11.6
		c21.2-4.2,41.5-1.4,58.5,13.6c3.8,3.4,7,7.5,10.5,11.3c4-4.1,7.8-8.9,12.4-12.7c14.1-11.8,30.7-14.9,48.6-13.4
		c21.2,1.8,40.5,9.8,60.5,16.1c8.2,2.6,16.8,3.6,25.2,5.6c1.8,0.4,3.3,1.8,4.9,2.7c0.3,0.7,0.5,1.4,0.8,2.1c0.1,1.7,0.2,3.3,0.2,5
		c0,63.5,0,127,0,190.5c0,7.5-1.6,8.8-9.3,8.3c-14.8-0.9-28.4-6.7-42.2-11.3c-14.2-4.7-28.4-9.3-43.5-10.2
		c-16-0.9-30.4,2.7-41.9,14.5c-2.8,2.9-5.9,4-9.1,0.9c-3.3-3.3-1.8-6.3,0.9-9.1c10.9-11.1,24.1-16.7,39.5-17.8
		c20.6-1.4,39.8,4.6,58.9,11c11,3.7,22.2,6.7,33.3,10c0.6-1.5,1.8-2.9,1.8-4.4c0.1-26,0.1-52,0.1-78c0-32.8,0-65.6-0.1-98.5
		C390.8,156.4,389.6,154.8,389,153.2z"/>
	<path class="st3" d="M196,337.8c16.7-0.4,31.2,4.4,43.5,15.4c1.2,1.1,3.2,1.6,4.8,1.8c7.9,0.8,14.6-0.8,21.4-6.2
		c14.8-11.7,32.8-13.5,50.4-9.9c18.8,3.9,37,10.4,55.6,15.5c7.8,2.1,15.8,3.7,23.8,5.1c3.5,0.6,6.4,1.7,6.1,5.7
		c-0.2,4-3.2,5.6-6.7,4.8c-12.1-2.7-24.2-5.5-36.2-8.7c-13.8-3.7-27.3-8.8-41.3-11.4c-19.5-3.7-38.2-2-53,13.7
		c-0.2,0.2-0.5,0.5-0.7,0.7c-4.8,3.5-26.2,2.1-30.4-2c-11.1-10.9-24.6-14.1-39.7-13.6c-21.6,0.7-41,9.4-61.2,15.4
		c-9.5,2.8-19.4,4.3-29.2,6.1c-3.3,0.6-6-1.6-5.6-4.7c0.2-2,2.8-5.2,4.4-5.4c17.4-1.3,33.1-8.6,49.4-13.7
		C166.1,341.7,180.8,337.4,196,337.8z"/>
	<path class="st3" d="M246.9,175.5c4.4-1.9,7.7-0.3,8.2,4.1c0.2,1.3,0.1,2.7,0.1,4c0,46.3,0,92.6,0,138.9c0,0.8,0,1.7,0,2.5
		c0,3.4-1.3,6.1-4.8,6.5c-3.7,0.4-5.9-1.7-6-5.6c0.6-1.4,1.6-2.7,1.6-4.1c0.1-45.9,0.1-91.8,0-137.7c0-1.4-1.1-2.7-1.6-4.1
		c0.2-0.7,0.4-1.4,0.6-2.1C245.5,177.1,246.2,176.3,246.9,175.5z"/>
	<path class="st4" d="M389,153.2c0.6,1.6,1.8,3.2,1.8,4.8c0.1,32.8,0.1,65.6,0.1,98.5c0,26,0,52-0.1,78c0,1.5-1.2,2.9-1.8,4.4
		c0-48.6,0.1-97.1,0.1-145.7C389.1,179.8,389,166.5,389,153.2z"/>
	<path class="st0" d="M244.3,180c0.6,1.4,1.6,2.7,1.6,4.1c0.1,45.9,0.1,91.8,0,137.7c0,1.4-1.1,2.7-1.6,4.1
		c-0.1-13.3-0.2-26.6-0.2-40c0-33.7,0-67.3,0-101C244.1,183.4,244.2,181.7,244.3,180z"/>
	<path class="st3" d="M401.9,147c-0.3-0.7-0.5-1.4-0.8-2.1C401.4,145.6,401.7,146.3,401.9,147z"/>
	<path class="st0" d="M246.9,175.5c-0.7,0.8-1.3,1.6-2,2.4C245.5,177.1,246.2,176.3,246.9,175.5z"/>
</g>
</svg>
