<?xml version="1.0" encoding="utf-8"?>
<!-- Generator: Adobe Illustrator 21.1.0, SVG Export Plug-In . SVG Version: 6.00 Build 0)  -->
<svg version="1.1" id="Lag_1" xmlns="http://www.w3.org/2000/svg" xmlns:xlink="http://www.w3.org/1999/xlink" x="0px" y="0px"
	 viewBox="0 0 499.9 499.8" style="enable-background:new 0 0 499.9 499.8;" xml:space="preserve">
<style type="text/css">
	.st0{fill:#262120;}
	.st1{fill:#F2EBDC;}
	.st2{fill:#1B1616;}
	.st3{fill:#F0E9DA;}
</style>
<g>
	<path class="st0" d="M3.7,249.9C3,118.4,106.7,10.4,235.8,3.9C308.5,0.2,372,23.7,423.7,75.3c47.9,47.8,71.9,106.2,72.4,174.1
		c0.9,136.3-111.3,247.3-247,246.7C113.3,495.4,3.8,386.1,3.7,249.9z M144.8,292.5c1.3,9,1.9,18.1,3.9,27
		c2.8,12.5,8.1,23.6,18.9,31.7c10.2,7.6,21.7,11.3,33.9,13.3c5.9,1,11.9,1.4,17.9,2.1c0.4-0.6,0.7-1.3,1.1-1.9
		c-21.2-19.5-39.2-40.9-42.7-70.9c2.6,0.4,4.8,1.2,6.6,2.4c3.7,2.6,4.9,1,5.6-2.6c1.7-8.9,3.4-17.9,5.3-26.8
		c0.2-0.8,0.9-1.4,1.8-2.7c0.5,1.4,0.7,1.9,0.8,2.3c3.7,15.4,8.3,30.5,17.2,43.8c1.1,1.6,3.4,2.4,5.1,3.6c0.6-0.9,0.6-24.2,0-25.1
		c-0.4-8.3-0.8-16.6-1.2-25.7c13.6,5,18.3,15.9,24.3,26.5c14.5-20.8,15.8-44.5,16.9-68.4c12.8,17.8,18.3,37.6,15.7,60.8
		c10.3-5.2,15.7-13.3,21.3-22c4.2,11.3,3.1,22.1,1.3,34.4c4.6-1.8,8.3-3.2,12.4-4.8c-2.1,16.1-7.4,30.6-15.7,44.2
		c-8.6,14.1-21.4,22.9-36,30.2c1.4,1.1,2.5,1.9,3.6,2c20.7,0.3,41.3-0.3,60-10.5c13.2-7.2,23.1-17.4,28.6-31.9
		c5.2-13.7,5.4-27.8,5.2-42.1c-0.1-3.8-0.7-7.7-1.3-13.1c-4.5,5.1-8.1,9-11.5,12.9c2.4-13.7,5.1-26.9,6.9-40.3
		c2.5-18.3-0.5-35.8-10.1-51.8c-0.7-1.2-2-2.3-3.2-2.7c-0.5-0.2-1.9,1.6-2.5,2.7c-1.3,2.7-2,5.7-3.4,8.3c-2.4,4.1-5.2,8-8.3,12.6
		c-0.9-1.8-1.1-2.1-1.1-2.4c-1.8-23.3-8.7-45.2-20.1-65.5c-2.7-4.8-7.1-8.7-10.9-12.8c-0.9-0.9-2.6-1-4-1.5c-0.5,1.3-1.3,2.7-1.3,4
		c-0.2,4.5,0.1,9-0.2,13.5c-0.2,3.7-1,7.4-1.5,11.1c-1.7-0.9-2.4-1.6-2.6-2.5c-2.9-11.4-8.1-21.7-14.4-31.5
		c-10.7-16.6-22.1-32.8-28.4-51.8c-0.3-0.9-1.4-1.6-2.2-2.4c-0.8,0.9-2.1,1.7-2.3,2.8c-0.7,4.8-1.4,9.5-1.6,14.3
		c-0.7,13.7-1.1,27.5-2,41.3c-0.3,4.9-1.9,9.8-2.9,14.9c-8.7-8-16.7-15.4-24.8-22.7c-1-0.9-2.6-1.1-3.9-1.6c-0.4,1.3-1.3,2.7-1.2,4
		c0.5,8.6,1.1,17.2,1.7,25.8c-2.7,2-2.7,4,0,6c-0.3,11.5,0,23-1,34.3c-0.6,6.5-3.4,12.8-5.2,19.2c-0.6,0-1.1,0-1.7-0.1
		c-6.7-10.9-13.3-21.8-20.3-33.3c-1.2,1.8-2.4,2.7-2.4,3.7c-0.3,8.9-0.3,17.9-0.6,26.8c-0.4,11.4-0.3,22.8-1.7,34.1
		c-0.9,7.2-3.7,7.9-10.1,4.6c-3.2-1.6-6.2-3.6-10.4-6.1c-0.6,7.6-1.1,14.1-1.5,20.6C144.3,256.7,144.5,290.9,144.8,292.5z
		 M109.9,380.8c-0.1,1-0.2,2.2-0.2,2.1c0,0,0-0.8,0.3-4.1C110,379.5,110,380.1,109.9,380.8z"/>
	<path class="st1" d="M220.3,314.1c-1.7-1.2-4.1-2.1-5.2-3.7c-8.9-13.3-13.5-28.4-17.2-43.8c-0.1-0.5-0.3-0.9-0.8-2.3
		c-0.9,1.3-1.6,2-1.8,2.7c-1.8,8.9-3.6,17.8-5.3,26.8c-0.7,3.6-2,5.2-5.6,2.6c-1.8-1.3-4-2-6.6-2.4c3.5,30,23,52.4,44.2,72
		c-0.4,0.6-2.2,0.2-2.6,0.8c-6-0.7-12-1.1-17.9-2.1c-12.2-2-23.7-5.7-33.9-13.3c-10.9-8.1-16.1-19.2-18.9-31.7c-2-8.8-2.6-18-3.9-27
		c-0.4-1.2-0.7-34.2-0.2-35.9c0.5-6.5,1-13,1.5-20.6c4.2,2.5,7.2,4.5,10.4,6.1c6.5,3.2,9.2,2.5,10.1-4.6c1.4-11.3,1.3-22.7,1.7-34.1
		c0.3-8.9,0.3-17.9,0.6-26.8c0-0.9,1.2-1.9,2.4-3.7c7,11.5,13.7,22.4,20.3,33.3c0.6,0,1.1,0,1.7,0.1c1.8-6.4,4.6-12.7,5.2-19.2
		c1-11.4,0.8-22.9,1-34.3c0-2,0-4,0-6c-0.6-8.6-1.2-17.2-1.7-25.8c-0.1-1.3,0.8-2.7,1.2-4c1.3,0.5,2.9,0.7,3.9,1.6
		c8.1,7.3,16.1,14.7,24.8,22.7c1-5.1,2.6-9.9,2.9-14.9c0.9-13.7,1.3-27.5,2-41.3c0.3-4.8,0.9-9.6,1.6-14.3c0.2-1,1.5-1.8,2.3-2.8
		c0.7,0.8,1.9,1.5,2.2,2.4c6.3,19,17.7,35.3,28.4,51.8c6.4,9.8,11.5,20.1,14.4,31.5c0.2,0.9,0.8,1.7,2.6,2.5
		c0.5-3.7,1.2-7.4,1.5-11.1c0.4-4.7-0.2-7.5,0.2-13.5c0.2-2.8,0.5-5,0.7-6.5c1.1,0.9,2.7,2.2,4.6,4c0,0,6.6,5.1,10.9,12.8
		c11.4,20.3,18.3,42.2,20.1,65.5c0,0.3,0.2,0.6,1.1,2.4c3.1-4.7,5.9-8.5,8.3-12.6c0.5-0.8,1.3-3.4,3.4-8.3c0.8-2,1.4-3.3,2.4-3.4
		c1.4-0.1,2.7,2.3,3.3,3.4c4.6,8.8,6.5,13.2,7.7,17.4c3.3,11,4,22.5,2.4,34.4c-1.8,13.4-4.5,26.6-6.9,40.3c3.4-3.8,7-7.8,11.5-12.9
		c0.6,5.5,1.3,9.3,1.3,13.1c0.2,14.2,0,28.4-5.2,42.1c-5.5,14.4-15.4,24.7-28.6,31.9c-7.8,4.3-32.3,17.2-60,10.5
		c-2.1-0.5-3.8-1-5-1.4c9.2-4.2,25.9-13.3,37.4-30.8c6.8-10.3,10.4-21.5,11.5-25c1.9-6.2,3.4-12.5,4.2-19.2c-4.1,1.6-7.7,3-12.4,4.8
		c1.8-12.3,2.9-23.1-1.3-34.4c-5.6,8.7-11,16.8-21.3,22c2.5-23.2-2.9-43-15.7-60.8c-1.1,24-2.4,47.7-16.9,68.4
		c-5.9-10.6-10.7-21.5-24.3-26.5c0.4,9.1,1.1,17.3,1.5,25.6C220.8,293,221.5,302,220.3,314.1z"/>
	<path class="st1" d="M110,390c0-3,0.1-10.7,0-11.1c91,0,182,0,273,0c2.7,0,5.3,0.1,8,0.2c-0.3,4.1-0.7,8.3-1,12.4
		C388.1,391,201.4,390,110,390z"/>
	<path class="st2" d="M110,378.9c1.6-0.7,279-0.5,281,0.2c-2.7-0.1-5.3-0.2-8-0.2"/>
	<path class="st0" d="M199.5,147c0,2,0,4,0,6C196.8,151,196.8,149,199.5,147z"/>
</g>
<path class="st3" d="M144.7,256.7"/>
</svg>
