<?xml version="1.0" encoding="utf-8"?>
<!-- Generator: Adobe Illustrator 21.1.0, SVG Export Plug-In . SVG Version: 6.00 Build 0)  -->
<svg version="1.1" id="Lag_1" xmlns="http://www.w3.org/2000/svg" xmlns:xlink="http://www.w3.org/1999/xlink" x="0px" y="0px"
	 viewBox="0 0 499.9 499.8" style="enable-background:new 0 0 499.9 499.8;" xml:space="preserve">
<style type="text/css">
	.st0{fill:#FDFDFD;}
	.st1{fill:#262120;}
	.st2{fill:#F0E9DA;}
	.st3{fill:#1B1616;}
</style>
<g>
	<path class="st0" d="M0,0c166.6,0,333.2,0,499.9,0c0,166.6,0,333.1,0,499.8c-166.6,0-333.3,0-499.9,0C0,333.3,0,166.6,0,0z
		 M3.8,250.1c0.1,136.1,109.6,245.5,245.4,246.2c135.7,0.7,247.9-110.4,247-246.7c-0.5-67.9-24.5-126.3-72.4-174.1
		C372.1,23.9,308.6,0.4,235.9,4.1C106.8,10.6,3.1,118.6,3.8,250.1z"/>
	<path class="st1" d="M3.8,250.1c-0.7-131.5,103-239.5,232.1-246c72.7-3.7,136.2,19.8,187.9,71.4c47.9,47.8,71.9,106.2,72.4,174.1
		c0.9,136.3-111.3,247.3-247,246.7C113.4,495.6,3.9,386.3,3.8,250.1z M144,257c-0.7,0.8-1.9,1.6-1.9,2.3c-0.1,8.7-0.1,17.5,0,26.2
		c0,0.8,1.2,1.6,1.8,2.4c0.3,1.6,0.7,3.2,1,4.8c1.3,9,1.9,18.1,3.9,27c2.8,12.5,8.1,23.6,18.9,31.7c10.2,7.6,21.7,11.3,33.9,13.3
		c5.9,1,11.9,1.4,17.9,2.1c0.4-0.6,0.7-1.3,1.1-1.9c-21.2-19.5-39.2-40.9-42.7-70.9c2.6,0.4,4.8,1.2,6.6,2.4c3.7,2.6,4.9,1,5.6-2.6
		c1.7-8.9,3.4-17.9,5.3-26.8c0.2-0.8,0.9-1.4,1.8-2.7c0.5,1.4,0.7,1.9,0.8,2.3c3.7,15.4,8.3,30.5,17.2,43.8c1.1,1.6,3.4,2.4,5.1,3.6
		c0.6-0.9,1.7-1.7,1.7-2.6c0.1-6.6,0.1-13.3,0-19.9c0-0.9-1.1-1.7-1.7-2.6c-0.4-8.3-0.8-16.6-1.2-25.7c13.6,5,18.3,15.9,24.3,26.5
		c14.5-20.8,15.8-44.5,16.9-68.4c12.8,17.8,18.3,37.6,15.7,60.8c10.3-5.2,15.7-13.3,21.3-22c4.2,11.3,3.1,22.1,1.3,34.4
		c4.6-1.8,8.3-3.2,12.4-4.8c-2.1,16.1-7.4,30.6-15.7,44.2c-8.6,14.1-21.4,22.9-36,30.2c1.4,1.1,2.5,1.9,3.6,2
		c20.7,0.3,41.3-0.3,60-10.5c13.2-7.2,23.1-17.4,28.6-31.9c5.2-13.7,5.4-27.8,5.2-42.1c-0.1-3.8-0.7-7.7-1.3-13.1
		c-4.5,5.1-8.1,9-11.5,12.9c2.4-13.7,5.1-26.9,6.9-40.3c2.5-18.3-0.5-35.8-10.1-51.8c-0.7-1.2-2-2.3-3.2-2.7
		c-0.5-0.2-1.9,1.6-2.5,2.7c-1.3,2.7-2,5.7-3.4,8.3c-2.4,4.1-5.2,8-8.3,12.6c-0.9-1.8-1.1-2.1-1.1-2.4c-1.8-23.3-8.7-45.2-20.1-65.5
		c-2.7-4.8-7.1-8.7-10.9-12.8c-0.9-0.9-2.6-1-4-1.5c-0.5,1.3-1.3,2.7-1.3,4c-0.2,4.5,0.1,9-0.2,13.5c-0.2,3.7-1,7.4-1.5,11.1
		c-1.7-0.9-2.4-1.6-2.6-2.5c-2.9-11.4-8.1-21.7-14.4-31.5c-10.7-16.6-22.1-32.8-28.4-51.8c-0.3-0.9-1.4-1.6-2.2-2.4
		c-0.8,0.9-2.1,1.7-2.3,2.8c-0.7,4.8-1.4,9.5-1.6,14.3c-0.7,13.7-1.1,27.5-2,41.3c-0.3,4.9-1.9,9.8-2.9,14.9
		c-8.7-8-16.7-15.4-24.8-22.7c-1-0.9-2.6-1.1-3.9-1.6c-0.4,1.3-1.3,2.7-1.2,4c0.5,8.6,1.1,17.2,1.7,25.8c-2.7,2-2.7,4,0,6
		c-0.3,11.5,0,23-1,34.3c-0.6,6.5-3.4,12.8-5.2,19.2c-0.6,0-1.1,0-1.7-0.1c-6.7-10.9-13.3-21.8-20.3-33.3c-1.2,1.8-2.4,2.7-2.4,3.7
		c-0.3,8.9-0.3,17.9-0.6,26.8c-0.4,11.4-0.3,22.8-1.7,34.1c-0.9,7.2-3.7,7.9-10.1,4.6c-3.2-1.6-6.2-3.6-10.4-6.1
		c-0.6,7.6-1.1,14.1-1.5,20.6C144.4,256.9,144.2,256.9,144,257z M110,381c0,3,0,6,0,9c1.7,0.6,3.4,1.7,5.1,1.7
		c89.9,0.1,179.9,0.1,269.8,0.1c1.7,0,3.3-0.1,5-0.2c0.3-4.1,0.7-8.3,1-12.4c-1.9-0.7-3.8-2-5.7-2.1c-65.8-0.1-131.6-0.1-197.4-0.1
		c-24.3,0-48.6,0-73,0.1c-1.6,0-3.3,1.2-4.9,1.9c0,0.4,0,0.7,0.1,1.1C110.1,380.3,110,380.6,110,381z"/>
	<path class="st2" d="M220.2,314c-1.7-1.2-4-2-5.1-3.6c-8.9-13.3-13.5-28.4-17.2-43.8c-0.1-0.5-0.3-0.9-0.8-2.3
		c-0.9,1.3-1.6,2-1.8,2.7c-1.8,8.9-3.6,17.8-5.3,26.8c-0.7,3.6-2,5.2-5.6,2.6c-1.8-1.3-4-2-6.6-2.4c3.5,30,21.5,51.3,42.7,70.9
		c-0.4,0.6-0.7,1.3-1.1,1.9c-6-0.7-12-1.1-17.9-2.1c-12.2-2-23.7-5.7-33.9-13.3c-10.9-8.1-16.1-19.2-18.9-31.7c-2-8.8-2.6-18-3.9-27
		c-0.2-1.6-0.6-3.2-1-4.8l0.3-0.1l0.2,0.2c0.5-0.9,1.5-1.8,1.5-2.7c0.1-8.7,0.1-17.3,0-26c0-0.9-0.8-1.7-1.2-2.5
		c0.5-6.5,1-13,1.5-20.6c4.2,2.5,7.2,4.5,10.4,6.1c6.5,3.2,9.2,2.5,10.1-4.6c1.4-11.3,1.3-22.7,1.7-34.1c0.3-8.9,0.3-17.9,0.6-26.8
		c0-0.9,1.2-1.9,2.4-3.7c7,11.5,13.7,22.4,20.3,33.3c0.6,0,1.1,0,1.7,0.1c1.8-6.4,4.6-12.7,5.2-19.2c1-11.4,0.8-22.9,1-34.3
		c0-2,0-4,0-6c-0.6-8.6-1.2-17.2-1.7-25.8c-0.1-1.3,0.8-2.7,1.2-4c1.3,0.5,2.9,0.7,3.9,1.6c8.1,7.3,16.1,14.7,24.8,22.7
		c1-5.1,2.6-9.9,2.9-14.9c0.9-13.7,1.3-27.5,2-41.3c0.3-4.8,0.9-9.6,1.6-14.3c0.2-1,1.5-1.8,2.3-2.8c0.7,0.8,1.9,1.5,2.2,2.4
		c6.3,19,17.7,35.3,28.4,51.8c6.4,9.8,11.5,20.1,14.4,31.5c0.2,0.9,0.8,1.7,2.6,2.5c0.5-3.7,1.2-7.4,1.5-11.1c0.3-4.5,0-9,0.2-13.5
		c0.1-1.3,0.9-2.7,1.3-4c1.4,0.5,3.1,0.6,4,1.5c3.8,4.1,8.2,8,10.9,12.8c11.4,20.3,18.3,42.2,20.1,65.5c0,0.3,0.2,0.6,1.1,2.4
		c3.1-4.7,5.9-8.5,8.3-12.6c1.5-2.6,2.2-5.6,3.4-8.3c0.5-1.1,1.9-2.9,2.5-2.7c1.2,0.3,2.5,1.5,3.2,2.7c9.6,16,12.6,33.5,10.1,51.8
		c-1.8,13.4-4.5,26.6-6.9,40.3c3.4-3.8,7-7.8,11.5-12.9c0.6,5.5,1.3,9.3,1.3,13.1c0.2,14.2,0,28.4-5.2,42.1
		c-5.5,14.4-15.4,24.7-28.6,31.9c-18.8,10.2-39.4,10.8-60,10.5c-1.1,0-2.3-0.8-3.6-2c14.5-7.3,27.4-16.2,36-30.2
		c8.3-13.6,13.6-28.1,15.7-44.2c-4.1,1.6-7.7,3-12.4,4.8c1.8-12.3,2.9-23.1-1.3-34.4c-5.6,8.7-11,16.8-21.3,22
		c2.5-23.2-2.9-43-15.7-60.8c-1.1,24-2.4,47.7-16.9,68.4c-5.9-10.6-10.7-21.5-24.3-26.5c0.4,9.1,0.8,17.4,1.2,25.7
		C220.2,297.3,220.2,305.7,220.2,314z"/>
	<path class="st2" d="M110,390c0-3,0-6,0-9c0.1-0.1,0.4-0.2,0.4-0.3c-0.1-0.2-0.2-0.5-0.3-0.7c0-0.4,0-0.7-0.1-1.1c91,0,182,0,273,0
		c2.7,0,5.3,0.1,8,0.2c-0.3,4.1-0.7,8.3-1,12.4c-1.9-0.5-3.8-1.5-5.7-1.5C292.8,390,201.4,390,110,390z"/>
	<path class="st3" d="M391,379.1c-2.7-0.1-5.3-0.2-8-0.2c-91,0-182,0-273,0c1.6-0.7,3.3-1.9,4.9-1.9c24.3-0.1,48.6-0.1,73-0.1
		c65.8,0,131.6,0,197.4,0.1C387.1,377.1,389,378.4,391,379.1z"/>
	<path class="st0" d="M110,390c91.4,0,182.8,0,274.2,0.1c1.9,0,3.8,1,5.7,1.5c-1.7,0.1-3.3,0.2-5,0.2c-89.9,0-179.9,0-269.8-0.1
		C113.4,391.7,111.7,390.6,110,390z"/>
	<path class="st3" d="M143.9,287.9c-0.6-0.8-1.8-1.6-1.8-2.4c-0.1-8.7-0.1-17.5,0-26.2c0-0.8,1.2-1.6,1.9-2.3
		c0.1,10.4,0.3,20.7,0.4,31.1l-0.2-0.2L143.9,287.9z"/>
	<path class="st0" d="M144.4,288c-0.1-10.4-0.3-20.7-0.4-31.1c0.2-0.1,0.5-0.1,0.7-0.2c0.4,0.8,1.2,1.7,1.2,2.5
		c0.1,8.7,0.1,17.3,0,26C145.9,286.2,144.9,287.1,144.4,288z"/>
	<path class="st3" d="M220.2,314c0-8.4,0-16.7,0-25.1c0.6,0.9,1.7,1.7,1.7,2.6c0.1,6.6,0.1,13.3,0,19.9
		C221.9,312.3,220.8,313.2,220.2,314z"/>
	<path class="st3" d="M199.7,147c0,2,0,4,0,6C197,151,197,149,199.7,147z"/>
	<path class="st0" d="M110.1,380c0.1,0.2,0.3,0.5,0.3,0.7c0,0-0.2,0.2-0.4,0.3C110,380.6,110.1,380.3,110.1,380z"/>
</g>
</svg>
