<?xml version="1.0" encoding="utf-8"?>
<!-- Generator: Adobe Illustrator 21.1.0, SVG Export Plug-In . SVG Version: 6.00 Build 0)  -->
<svg version="1.1" id="Lag_1" xmlns="http://www.w3.org/2000/svg" xmlns:xlink="http://www.w3.org/1999/xlink" x="0px" y="0px"
	 viewBox="0 0 498.9 499" style="enable-background:new 0 0 498.9 499;" xml:space="preserve">
<style type="text/css">
	.st0{fill:#FDFDFD;}
	.st1{fill:#272221;}
	.st2{fill:#F0E9DA;}
	.st3{fill:#EFE9DA;}
	.st4{fill:#EFE8D9;}
</style>
<g>
	<path class="st0" d="M-1,0c166.6,0,333.2,0,499.9,0c0,166.5,0,333.1,0,499.8c-166.6,0-333.2,0-499.9,0C-1,333.3-1,166.7-1,0z
		 M495.3,250.6c-0.5-67.3-23.7-125.7-71.1-173.6C372.5,24.5,308.8,0.7,235.4,4C109.7,9.8,3.8,114.7,2.7,248.1
		C1.5,385.3,113.4,495.5,247.2,496.4C383.4,497.2,495.7,386.4,495.3,250.6z"/>
	<path class="st1" d="M495.3,250.6c0.4,135.9-111.9,246.7-248.1,245.8C113.4,495.5,1.5,385.3,2.7,248.1C3.8,114.7,109.7,9.8,235.4,4
		c73.3-3.3,137,20.5,188.8,72.9C471.6,124.8,494.8,183.2,495.3,250.6z M318,270L318,270c0.7-1.6,1.1-3.4,2.1-4.7
		c3.6-4.8,7.3-9.4,11-14c-0.2-0.5-0.4-1.1-0.7-1.6c-1.4,0.3-3.3,0.2-4,1.1c-5.3,6.6-10.3,13.4-15.4,20.2
		c-10.8,13.7-21.7,27.4-32.5,41.1c-3.9,4.9-7.7,9.9-11.5,14.9c0.8,1,1.2,1.5,1.7,1.9c28.3,22.1,56.6,44.3,85,66.3
		c4.8,3.7,8.7,3.1,12.5-1.6c4.9-6.1,9.6-12.3,14.4-18.5c12.1-15.5,24.1-31,36.2-46.5c2.8-3.6,3.4-7.4,0.1-10.8
		c-2.9-2.9-6.4-5.1-9.9-7.9c-8.1,10.4-15.9,20.2-23.6,30c-3.9-1.5-2.2-3.2-0.8-5c7.1-9,14.1-18,21.4-27.4c-2.2-1.7-4.1-3.1-6.2-4.7
		c-4.2,5.3-8,10.4-12,15.2c-0.9,1-2.7,1.2-4.1,1.8c-0.2-0.5-0.4-1-0.7-1.6c4.5-5.9,9-11.7,13.8-17.9c-2.3-1.8-4.1-3.1-6.1-4.6
		c-4.9,6.2-9.5,12-14.1,17.8c-0.6-0.2-1.2-0.3-1.7-0.5c0.2-1.3-0.1-2.9,0.6-3.8c3.9-5.3,8.1-10.5,12.3-16c-2.1-1.7-4-3.1-6.1-4.8
		c-5,6.2-9.6,12.1-14.4,18.1c-0.9-0.9-2.1-1.8-2-1.9c4.2-6.2,8.5-12.4,13-18.9c-1.9-1.5-3.7-2.9-5.7-4.5c-4.9,6.2-9.5,12-14.1,17.8
		c-0.5-0.1-1-0.2-1.6-0.2c0.1-1.4-0.3-3.1,0.4-4c3.9-5.3,8-10.5,12.3-16c-2.2-1.7-4-3.1-6.1-4.7c-5.8,7.3-11.3,14.4-16.8,21.4
		c-2.2,2.8-2.2,2.8-4.7,0c6.1-7.8,12.2-15.7,18.6-23.8c-2.3-1.7-4.2-3.2-6.2-4.7c-4.4,5.5-8.3,10.7-12.5,15.7
		c-0.7,0.9-2.5,0.9-3.8,1.3c-0.2-0.5-0.4-1-0.6-1.5c4.5-5.9,9.1-11.7,13.8-17.8c-2.1-1.7-3.8-3.2-5.9-4.9
		c-4.3,5.5-8.3,10.8-12.5,15.8c-0.8,0.9-2.6,0.9-3.9,1.3c-0.2-0.5-0.4-1-0.6-1.4c4.5-5.9,9.1-11.7,13.9-17.9c-2.1-1.6-3.8-3-6.1-4.9
		c-3.3,4.4-6.3,8.4-9.4,12.5C322.2,266.5,322.5,272,318,270z M164.9,270.9c1.1-0.1,2.2-0.1,3.3-0.4c9-2.4,17.9,2.9,19.6,12
		c0.4,2,0.3,4.1,0.5,7.7c39.1-50.1,77.4-99.1,116-148.4c-8.3-6.5-16.2-12.7-24.2-18.9c-1,1.1-1.5,1.7-2,2.4
		c-33.1,42.3-66.2,84.7-99.2,127.1c-4.7,6.1-9.2,12.4-13.8,18.6c0,0.1,0,0.1-0.1,0.2C165,271.1,164.9,271,164.9,270.9z M169.7,251.5
		c20.7-26.5,41-52.5,61.3-78.5c-5.6-5.6-5.6-5.5-9.9,0.1c-6.5,8.4-13.1,16.8-19.7,25.2c-1.4,1.8-2.7,3.7-5,0.3
		c8.5-10.9,17-21.8,25.5-32.8c-0.6-0.6-0.9-1.1-1.2-1.4c-25.4-19.9-50.8-39.8-76.3-59.6c-5.3-4.1-8.9-3.5-13.2,2
		c-16,20.4-31.9,40.9-47.9,61.4c-6.7,8.6-6.4,10.9,2.4,17.8c12.1,9.4,24.1,18.9,36.2,28.3C137.7,226.6,153.5,238.9,169.7,251.5z
		 M340.6,170.1c-38.7,49.6-77.1,98.8-115.5,148c6.5-2,12.2-1.6,17.7,2.3c5.9,4.2,5.5,10.6,5.5,18.1c39.4-50.5,77.9-99.8,116.6-149.3
		C356.5,182.6,348.8,176.6,340.6,170.1z M218.4,313.8c1.2-1.3,2-2.2,2.8-3.2c27.2-34.8,54.5-69.7,81.7-104.5
		c9.3-11.9,18.7-23.8,28.2-35.6c2.9-3.6,3-5.9-1.1-8.7c-6.7-4.7-12.9-9.9-19.7-15.3c-38.7,49.5-77.2,98.8-116.2,148.8
		C210,290,219.5,298.9,218.4,313.8z M340.4,157.5c11.1-14.2,21.8-27.9,33.1-42.3c-8.3-6.4-16.2-12.6-24.4-18.9
		c-11.3,14.5-22,28.2-33,42.2C324.3,144.9,332.1,151,340.4,157.5z M379.4,120.1c-11.2,14.3-22,28.1-33,42.1
		c8.3,6.4,16.2,12.6,24.5,19c7.9-10.4,15.7-20.1,22.9-30.2c3.7-5.2,3.2-11.3-0.8-16.2C388.9,129.8,384.3,125.3,379.4,120.1z
		 M343.1,91.7c-5.9-3.3-11-6.5-16.2-9.2c-6.6-3.4-13.7-2-18.5,3.6c-4,4.7-7.6,9.6-11.4,14.5c-3.6,4.7-7.3,9.3-11.2,14.3
		c8.3,6.5,16.1,12.6,24.4,19C321.1,119.9,331.8,106.2,343.1,91.7z M157.1,344.3c0.7-1.2,1.4-2.2,1.9-3.2
		c7.5-14.3,15.1-28.5,22.5-42.8c4.8-9.2-0.8-20.5-11-22.4c-8.1-1.5-14.7,3.1-16,11.4c-0.8,5.1-1.5,10.2-2.2,15.3
		c-1.8,12.8-3.7,25.6-5.5,38.5C150.4,342.1,153.5,343.1,157.1,344.3z M184.2,372c18-7.3,35.5-14.3,53-21.4c1.1-0.5,2.3-1.4,3-2.4
		c4.2-5.6,2.7-15.2-3.1-20.4c-5.6-5-13.4-5.1-19-0.2c-1.9,1.6-3.6,3.5-5.4,5.1c-11.2,9.8-22.5,19.6-33.8,29.5
		C180.6,365.6,182.3,368.6,184.2,372z M163.6,348.4c3.4,2.9,6.6,5.5,10.1,8.5c11.9-10.4,23.8-20.4,35.2-31c4.5-4.2,4.3-10.4,2-15.9
		c-2.4-5.7-6.9-9.4-13.4-9.6c-6.2-0.2-10.8,2.8-13.7,8.2c-1.3,2.3-2.5,4.7-3.7,7C174.6,326.5,169.1,337.4,163.6,348.4z M178.6,376.7
		c-4.8-14.8-23.5-28.9-36.1-27.1c-2.1,14.5-4.2,29-6.4,44.4C150.7,388,164.5,382.4,178.6,376.7z"/>
	<path class="st2" d="M169.7,251.5c-16.3-12.7-32-24.9-47.7-37.2c-12.1-9.4-24.1-18.9-36.2-28.3c-8.8-6.8-9.1-9.1-2.4-17.8
		c15.9-20.5,31.9-40.9,47.9-61.4c4.3-5.5,7.9-6.1,13.2-2c25.5,19.8,50.9,39.7,76.3,59.6c0.4,0.3,0.7,0.7,1.2,1.4
		c-8.5,10.9-17.1,21.9-25.5,32.8c2.3,3.4,3.6,1.5,5-0.3c6.6-8.4,13.1-16.8,19.7-25.2c4.4-5.6,4.3-5.7,9.9-0.1
		C210.8,199,190.5,225,169.7,251.5z M161.1,169.8c0.1-8.8-6.2-15.5-14.6-15.7c-8.6-0.2-15.8,6.6-15.9,15.1
		c-0.1,8.2,6.9,15.3,15.1,15.4C154.3,184.8,161,178.3,161.1,169.8z"/>
	<path class="st3" d="M324.9,265.6c3.1-4.1,6.1-8.2,9.4-12.5c2.3,1.8,4.1,3.2,6.1,4.9c-4.8,6.2-9.3,12.1-13.9,17.9
		c0.2,0.5,0.4,1,0.6,1.4c1.3-0.4,3.2-0.4,3.9-1.3c4.2-5.1,8.2-10.3,12.5-15.8c2.1,1.8,3.8,3.2,5.9,4.9c-4.7,6.1-9.3,11.9-13.8,17.8
		c0.2,0.5,0.4,1,0.6,1.5c1.3-0.4,3-0.5,3.8-1.3c4.2-5,8.1-10.1,12.5-15.7c2,1.5,3.9,3,6.2,4.7c-6.4,8.2-12.5,16-18.6,23.8
		c2.5,2.7,2.5,2.8,4.7,0c5.5-7,11.1-14.1,16.8-21.4c2.1,1.6,3.9,3,6.1,4.7c-4.3,5.5-8.4,10.7-12.3,16c-0.7,0.9-0.3,2.7-0.4,4
		c0.5,0.1,1,0.2,1.6,0.2c4.6-5.8,9.3-11.7,14.1-17.8c2.1,1.6,3.8,3,5.7,4.5c-4.5,6.5-8.8,12.6-13,18.9c-0.1,0.1,1.1,1,2,1.9
		c4.8-6.1,9.4-11.9,14.4-18.1c2,1.6,4,3.1,6.1,4.8c-4.2,5.4-8.3,10.6-12.3,16c-0.7,0.9-0.4,2.5-0.6,3.8c0.6,0.2,1.2,0.3,1.7,0.5
		c4.6-5.8,9.2-11.6,14.1-17.8c2,1.5,3.8,2.8,6.1,4.6c-4.7,6.2-9.2,12-13.8,17.9c0.2,0.5,0.4,1,0.7,1.6c1.4-0.6,3.2-0.8,4.1-1.8
		c4.1-4.8,7.8-9.9,12-15.2c2.1,1.6,4,3.1,6.2,4.7c-7.3,9.3-14.4,18.4-21.4,27.4c-1.4,1.7-3.1,3.4,0.8,5c7.7-9.8,15.4-19.6,23.6-30
		c3.5,2.7,7,5,9.9,7.9c3.3,3.3,2.8,7.1-0.1,10.8c-12.1,15.5-24.1,31-36.2,46.5c-4.8,6.2-9.6,12.4-14.4,18.5
		c-3.8,4.7-7.7,5.3-12.5,1.6c-28.4-22.1-56.7-44.2-85-66.3c-0.5-0.4-0.9-1-1.7-1.9c3.8-4.9,7.6-9.9,11.5-14.9
		c10.8-13.7,21.6-27.4,32.5-41.1c2.3-0.3,4.7-0.7,7-1c0,0,0,0,0,0c0.6,3.3,2.2,3.6,4.2,1.2C323.4,269.6,324,267.5,324.9,265.6z"/>
	<path class="st3" d="M340.6,170.1c8.3,6.5,15.9,12.5,24.3,19.1c-38.6,49.5-77.2,98.8-116.6,149.3c0-7.5,0.4-13.8-5.5-18.1
		c-5.5-3.9-11.2-4.3-17.7-2.3C263.5,268.9,301.9,219.6,340.6,170.1z"/>
	<path class="st3" d="M218.4,313.8c1.1-14.9-8.4-23.8-24.3-18.6c39.1-50,77.6-99.3,116.2-148.8c6.8,5.4,13,10.7,19.7,15.3
		c4.1,2.9,4,5.2,1.1,8.7c-9.5,11.8-18.8,23.7-28.2,35.6c-27.3,34.8-54.5,69.7-81.7,104.5C220.4,311.6,219.6,312.5,218.4,313.8z"/>
	<path class="st3" d="M165,271c4.6-6.2,9-12.5,13.8-18.6c33-42.4,66.1-84.7,99.2-127.1c0.5-0.6,1.1-1.3,2-2.4
		c8,6.3,15.9,12.4,24.2,18.9c-38.5,49.3-76.8,98.4-116,148.4c-0.2-3.6-0.1-5.7-0.5-7.7c-1.8-9.1-10.6-14.4-19.6-12
		c-1.1,0.3-2.2,0.3-3.3,0.4C164.9,270.9,165,271,165,271z"/>
	<path class="st4" d="M340.4,157.5c-8.3-6.5-16.2-12.6-24.3-19c11-14,21.7-27.7,33-42.2c8.2,6.3,16.1,12.5,24.4,18.9
		C362.3,129.6,351.5,143.3,340.4,157.5z"/>
	<path class="st4" d="M379.4,120.1c4.9,5.2,9.5,9.7,13.6,14.7c4,5,4.5,11,0.8,16.2c-7.2,10.1-15,19.8-22.9,30.2
		c-8.3-6.4-16.2-12.6-24.5-19C357.4,148.2,368.2,134.5,379.4,120.1z"/>
	<path class="st4" d="M343.1,91.7c-11.3,14.5-22,28.2-33,42.2c-8.2-6.4-16-12.5-24.4-19c3.9-5,7.5-9.6,11.2-14.3
		c3.8-4.8,7.4-9.8,11.4-14.5c4.8-5.6,11.9-7,18.5-3.6C332.1,85.2,337.2,88.3,343.1,91.7z"/>
	<path class="st4" d="M157.1,344.3c-3.7-1.2-6.8-2.2-10.2-3.3c1.9-12.9,3.7-25.7,5.5-38.5c0.7-5.1,1.4-10.2,2.2-15.3
		c1.3-8.3,7.9-12.9,16-11.4c10.2,1.9,15.7,13.3,11,22.4c-7.5,14.3-15,28.5-22.5,42.8C158.5,342.1,157.9,343,157.1,344.3z"/>
	<path class="st4" d="M184.2,372c-1.9-3.4-3.6-6.4-5.4-9.8c11.3-9.9,22.6-19.7,33.8-29.5c1.9-1.6,3.6-3.5,5.4-5.1
		c5.6-4.9,13.4-4.8,19,0.2c5.8,5.1,7.3,14.7,3.1,20.4c-0.7,1-1.9,1.9-3,2.4C219.6,357.7,202.1,364.7,184.2,372z"/>
	<path class="st3" d="M163.6,348.4c5.5-11,11-21.9,16.5-32.9c1.2-2.4,2.4-4.7,3.7-7c3-5.4,7.5-8.4,13.7-8.2
		c6.5,0.2,10.9,3.9,13.4,9.6c2.3,5.5,2.5,11.6-2,15.9c-11.4,10.6-23.3,20.6-35.2,31C170.1,353.9,167,351.3,163.6,348.4z"/>
	<path class="st4" d="M178.6,376.7c-14.1,5.7-27.9,11.3-42.4,17.3c2.2-15.4,4.3-29.9,6.4-44.4C155.1,347.8,173.8,361.8,178.6,376.7z
		"/>
	<path class="st4" d="M318,270c-2.3,0.3-4.7,0.7-7,1c5.1-6.8,10.1-13.6,15.4-20.2c0.7-0.9,2.7-0.8,4-1.1c0.2,0.5,0.4,1.1,0.7,1.6
		c-3.7,4.7-7.4,9.3-11,14C319.1,266.6,318.7,268.4,318,270z"/>
	<path class="st4" d="M324.9,265.6c-0.9,1.9-1.5,4-2.7,5.6c-1.9,2.4-3.6,2.1-4.2-1.2C322.5,272,322.2,266.5,324.9,265.6z"/>
	<path class="st3" d="M164.9,270.9c0,0.1,0,0.2,0,0.3c0-0.1,0-0.1,0.1-0.2C165,271,164.9,270.9,164.9,270.9z"/>
	<path class="st1" d="M161.1,169.8c-0.1,8.4-6.9,14.9-15.4,14.9c-8.3-0.1-15.2-7.2-15.1-15.4c0.1-8.5,7.3-15.3,15.9-15.1
		C155,154.4,161.2,161.1,161.1,169.8z"/>
</g>
</svg>
