<?xml version="1.0" encoding="utf-8"?>
<!-- Generator: Adobe Illustrator 21.1.0, SVG Export Plug-In . SVG Version: 6.00 Build 0)  -->
<svg xmlns="http://www.w3.org/2000/svg" xmlns:xlink="http://www.w3.org/1999/xlink" version="1.1" id="Lag_1" x="0px" y="0px" viewBox="0 0 518 518" style="enable-background:new 0 0 518 518;" xml:space="preserve" fill="#f2ebdc">
<style type="text/css">
	.st0{fill: #f2ebdc;}
	.st1{fill: #f2ebdc;}
</style>
<g>
	<path class="st0" d="M259,8.9c67.8,0.4,126.7,23.8,175,71.3c50.2,49.4,75.2,110.1,74.9,180.7c-0.3,60.5-20,114.3-59.5,160.1   c-50,58.1-114,87.7-190.7,87.8c-70.4,0.1-130.6-25.6-179.5-76C27.9,380,5.1,315.7,9.3,242.6c3.6-62,28.1-115.8,71.9-160.1   C127.2,36.1,190.1,8.4,259,8.9z M259,94.2L259,94.2c-22.5,0.1-45,0.2-67.5,0c-13.8-0.1-27,2.5-39.8,7.8   c-33.2,13.8-57.5,49.4-57.6,85.2c0,46.5,0.2,92.9,0,139.4c-0.1,20.2,5.1,38.8,16.6,55.3c17.1,24.4,40.4,38.9,70.2,41   c19.3,1.4,38.8,0.8,58.2,0.8c26.5,0.1,52.9-0.1,79.4,0c13,0,25.7-0.7,38.4-4.6c38.4-11.9,66.2-47.8,66.7-89.4   c0.5-46.3,0-92.6,0.1-139c0-13.6-2.2-26.8-8-39.1c-16.7-35.4-44.6-55.3-83.8-57.3C307.7,93.1,283.4,94.2,259,94.2z"/>
	<path class="st1" d="M119.1,258.7c0-22.5-0.3-45,0.1-67.5c0.5-29.9,14.1-52,41-65.5c9.8-4.9,20.5-6.6,31.4-6.6   c45-0.1,90-0.1,134.9,0c35.5,0.1,63.8,22.9,70.9,57.4c1.1,5.2,1.4,10.5,1.4,15.8c0.1,44.3,0.2,88.6,0,132.9   c-0.2,31.3-14.3,54.3-42.9,67.7c-9.5,4.4-19.7,5.8-30.1,5.8c-44.6,0.1-89.3,0.2-133.9,0c-28.5-0.2-50.4-12.5-64.5-37.7   c-6-10.8-8.3-22.7-8.3-34.9C119,303.6,119.1,281.1,119.1,258.7z M170.2,258.6c-0.2,49,39.2,88,86.5,89   c50.1,1.1,89.6-38.6,90.9-86.1c1.4-51-39.7-91.2-88.3-91.3C210.2,170.1,170.3,209.7,170.2,258.6z M354.3,182.7   c10,0.1,18.8-8.7,18.7-18.8c-0.1-10.6-8.4-19.1-18.9-19.2c-10.1-0.1-18.9,8.6-19,18.6C335.1,174,343.6,182.6,354.3,182.7z"/>
	<path class="st0" d="M322.4,258.6c0,35.8-28,63.8-63.8,63.8c-34.9,0-63.1-28.4-63.1-63.6c0-35,28.4-63.3,63.4-63.3   C294,195.5,322.4,223.6,322.4,258.6z"/>
</g>
</svg>
